<svg id="_2011_BENVITEC_beeldmerk_wit_baseline_zwart" data-name="2011_BENVITEC_beeldmerk_wit_baseline_zwart" xmlns="http://www.w3.org/2000/svg" width="316.102" height="177.89" viewBox="0 0 316.102 177.89">
  <path id="Path_32" data-name="Path 32" d="M199.466,51.851c0,4.038,2.88,6.971,7.656,6.971s7.653-2.934,7.653-6.236c0-8.257-12.21-5.323-12.21-11.009,0-1.87,1.823-3.669,4.557-3.669a4.164,4.164,0,0,1,4.191,4.4h2.918a7.013,7.013,0,0,0-7.109-6.974c-4.375,0-7.475,3.121-7.475,6.239,0,8.257,12.213,5.32,12.213,11.009,0,2.055-1.642,3.669-4.738,3.669s-4.741-1.614-4.741-4.4Zm-21.217,6.79h2.918V41.211l11.481,17.429H195.2V35.523h-2.915V52.952L180.8,35.523H178.25Zm-14.812-23.3c-5.651,0-10.755,5.138-10.755,11.744s5.1,11.741,10.755,11.741,10.752-5.135,10.752-11.741-5.1-11.744-10.752-11.744m0,2.571c4.009,0,7.837,3.853,7.837,9.173s-3.828,9.173-7.837,9.173S155.6,52.4,155.6,47.082s3.825-9.173,7.837-9.173M145.78,58.641H148.7V35.526H145.78Zm-12.744,0h2.915V38.09h6.927V35.523H126.109V38.09h6.927V58.641Zm-26.418-8.075a8.386,8.386,0,0,0,16.769,0V35.523H120.47V50.566c0,3.525-2.149,5.689-5.467,5.689s-5.467-2.164-5.467-5.689V35.523h-2.918ZM90.853,58.641H104.7V56.07H93.771V35.523H90.853Zm-14.815-23.3c-5.648,0-10.752,5.138-10.752,11.744s5.1,11.741,10.752,11.741,10.755-5.135,10.755-11.741-5.1-11.744-10.755-11.744m0,2.571c4.013,0,7.837,3.853,7.837,9.173s-3.825,9.173-7.837,9.173S68.2,52.4,68.2,47.082s3.828-9.173,7.837-9.173M47.628,51.851c0,4.038,2.88,6.971,7.656,6.971s7.653-2.934,7.653-6.236c0-8.257-12.21-5.323-12.21-11.009,0-1.87,1.823-3.669,4.557-3.669a4.164,4.164,0,0,1,4.191,4.4h2.918a7.013,7.013,0,0,0-7.109-6.974c-4.375,0-7.475,3.121-7.475,6.239,0,8.257,12.213,5.32,12.213,11.009,0,2.055-1.642,3.669-4.738,3.669s-4.741-1.614-4.741-4.4Z" transform="translate(101.327 75.18)" fill="#fff"/>
  <path id="Path_33" data-name="Path 33" d="M92.032,35.97V27.532H97.68a4.224,4.224,0,0,1,0,8.438H92.032ZM89.114,48.08h2.918V38.541H96.4l5.47,9.539h3.281l-5.614-9.723a8.347,8.347,0,0,0,2.514-1.32,6.367,6.367,0,0,0,2.552-5.285,6.908,6.908,0,0,0-6.927-6.787H89.114ZM74.3,24.78c-5.648,0-10.752,5.135-10.752,11.74s5.1,11.744,10.752,11.744,10.755-5.138,10.755-11.744S79.95,24.78,74.3,24.78m0,2.568c4.009,0,7.837,3.853,7.837,9.173s-3.828,9.173-7.837,9.173-7.837-3.853-7.837-9.173,3.828-9.173,7.837-9.173M48.094,48.08h2.915V37.806h9.113V35.238H51.009V27.532H62.127V24.965H48.094Z" transform="translate(102.318 52.719)" fill="#fff"/>
  <path id="Path_34" data-name="Path 34" d="M154.215,37.52H156.4V25.961h-9.658v2.571h6.743c0,3.3-3.281,6.6-6.927,6.6-4.009,0-7.837-3.853-7.837-9.173s3.828-9.173,7.837-9.173c3.647,0,5.651,2.017,6.561,4.954h3.1c-1.457-4.4-4.557-7.522-9.661-7.522-5.648,0-10.752,5.135-10.752,11.741s5.1,11.744,10.752,11.744a9.689,9.689,0,0,0,5.1-1.47,10.291,10.291,0,0,0,1.823-1.467Zm-39.491,0h2.918V20.09l6.8,10.327,4.678,7.1h2.552V14.4h-2.915V31.831L117.277,14.4h-2.552Zm-8.388,0h2.915V14.4h-2.915Zm-22.458,0H86.8V20.09L98.277,37.52h2.552V14.4H97.915V31.831L86.43,14.4H83.878V37.52Zm-8.388,0h2.915V14.4H75.491Zm-27.4,0h2.915V21.926L58.118,37.52h1.823L67.05,21.926V37.52h2.915V14.4H67.6L59.031,32.932,50.465,14.4H48.094V37.52Z" transform="translate(102.318 30.253)" fill="#fff"/>
  <path id="Path_35" data-name="Path 35" d="M49.648,168.627A47.724,47.724,0,0,1,3.522,132.239a49.99,49.99,0,0,0,46.127,31.45,49.979,49.979,0,0,0,46.121-31.409,47.73,47.73,0,0,1-46.121,36.347m0,7.1A47.61,47.61,0,0,1,3.54,139.4a49.56,49.56,0,0,0,92.229-.025,47.614,47.614,0,0,1-46.121,36.35m0-166.466a47.732,47.732,0,0,1,46.13,36.385A49.987,49.987,0,0,0,49.648,14.2,49.978,49.978,0,0,0,3.522,45.648,47.724,47.724,0,0,1,49.648,9.26m0-7.1A47.62,47.62,0,0,1,95.769,38.508,49.562,49.562,0,0,0,3.54,38.483,47.616,47.616,0,0,1,49.648,2.164m0,19.134A50.041,50.041,0,0,0,3.534,52.7,47.8,47.8,0,0,1,49.648,16.366,47.8,47.8,0,0,1,95.757,52.673,50.024,50.024,0,0,0,49.648,21.3m0,7.1A49.352,49.352,0,0,0,3.568,59.675a47.826,47.826,0,0,1,46.08-36.213A47.816,47.816,0,0,1,95.744,59.7a49.344,49.344,0,0,0-46.1-31.3M94.822,64.638a49.58,49.58,0,0,0-90.34,0c-.059-.181-.119-.363-.175-.544a47.425,47.425,0,0,1,90.687,0c-.059.181-.116.363-.172.544M93.3,68.7A49.271,49.271,0,0,0,49.648,42.6,49.972,49.972,0,0,0,6,68.7c-.147-.35-.291-.7-.435-1.057a47.41,47.41,0,0,1,88.179,0c-.141.35-.285.7-.435,1.054m-1.876,3.916a49.543,49.543,0,0,0-83.553,0q-.375-.7-.732-1.42A47.791,47.791,0,0,1,49.648,44.767,47.156,47.156,0,0,1,92.16,71.2q-.357.718-.732,1.417m-2.3,3.816a49.52,49.52,0,0,0-78.956,0c-.369-.554-.729-1.117-1.076-1.676a47.373,47.373,0,0,1,81.1-.006c-.344.566-.7,1.129-1.073,1.683m-2.777,3.762a49.479,49.479,0,0,0-73.4,0c-.522-.635-1.01-1.263-1.47-1.889A47.351,47.351,0,0,1,87.822,78.3q-.7.957-1.47,1.9m-3.39,3.719a49.459,49.459,0,0,0-66.624,0q-1.013-1.009-1.964-2.064a47.312,47.312,0,0,1,70.559,0c-.6.672-1.257,1.357-1.97,2.064m-4.185,3.684a49.42,49.42,0,0,0-58.252,0c-.913-.71-1.786-1.445-2.611-2.189a47.278,47.278,0,0,1,63.472,0c-.816.738-1.689,1.473-2.608,2.189M22.349,88.951a47.249,47.249,0,0,1,54.609,0,47.319,47.319,0,0,1-54.609,0M81.386,92.5a47.3,47.3,0,0,1-63.472,0c.829-.751,1.7-1.482,2.611-2.192a49.473,49.473,0,0,0,58.252,0c.913.71,1.783,1.445,2.608,2.192m3.537,3.547a47.3,47.3,0,0,1-70.543,0q.976-1.088,1.952-2.055a49.484,49.484,0,0,0,66.637,0c.657.647,1.314,1.335,1.955,2.055m2.9,3.559a47.363,47.363,0,0,1-76.335,0c.5-.676.988-1.31,1.476-1.9a49.475,49.475,0,0,0,73.386,0c.485.591.973,1.22,1.473,1.9m2.386,3.55a47.383,47.383,0,0,1-81.108,0c.357-.585.71-1.142,1.073-1.686a49.536,49.536,0,0,0,78.962,0c.36.544.716,1.1,1.073,1.686M10.171,94.359c.432.563.879,1.123,1.348,1.683-.447.535-.894,1.1-1.345,1.7-.369-.554-.729-1.123-1.076-1.692.357-.582.71-1.142,1.073-1.686m0-10.84c-.369-.547-.726-1.107-1.073-1.673q.521-.849,1.073-1.676c.422.557.869,1.117,1.335,1.676-.463.554-.91,1.117-1.335,1.673m2.78,3.765c-.513-.625-1.007-1.257-1.47-1.889.46-.632.951-1.267,1.47-1.9q.882.966,1.811,1.9-.919.905-1.811,1.883m1.42,1.661q.957-1.065,1.961-2.048c.766.7,1.573,1.385,2.414,2.055-.835.666-1.645,1.354-2.411,2.052q-.995-.98-1.964-2.058m-4.2,1.679q-.549-.83-1.07-1.679c.36-.591.713-1.148,1.07-1.683.428.566.879,1.126,1.342,1.683-.475.572-.919,1.129-1.342,1.679m2.783-.019q.887.985,1.808,1.889c-.6.6-1.2,1.229-1.8,1.889-.522-.629-1.013-1.263-1.479-1.889.453-.619.941-1.245,1.473-1.889M7.875,98.177q.455.713.944,1.42-.479.694-.941,1.417c-.253-.469-.5-.941-.735-1.423.235-.475.482-.948.732-1.414m0-7.1c.306.475.622.944.941,1.414-.319.46-.635.929-.944,1.417-.25-.466-.5-.935-.732-1.414q.357-.722.735-1.417M7.146,78.3c.235-.475.479-.951.729-1.414.31.475.625.951.948,1.414q-.483.7-.944,1.417-.38-.7-.732-1.417m.732,5.679c.306.479.622.948.944,1.417-.316.45-.629.926-.944,1.42-.253-.469-.5-.938-.732-1.417.235-.475.479-.951.732-1.42m83.55,21.311q.375.7.732,1.41a47.153,47.153,0,0,1-42.512,26.424A47.772,47.772,0,0,1,7.143,106.7q.357-.713.732-1.41a49.547,49.547,0,0,0,83.553,0M6,102.093c.191.353.388.71.585,1.06-.2.344-.394.7-.585,1.051-.15-.35-.294-.7-.435-1.051.141-.36.285-.71.435-1.06m0-7.1c.191.353.388.7.585,1.051-.2.347-.394.7-.585,1.054-.147-.347-.294-.7-.435-1.054.141-.35.285-.7.435-1.051m0-7.106c.191.357.388.707.588,1.063-.2.344-.4.694-.588,1.051-.15-.35-.294-.7-.435-1.051.141-.357.285-.71.435-1.063M5.561,74.753c.141-.36.285-.71.435-1.06.191.353.388.71.585,1.06-.2.347-.394.7-.585,1.051-.15-.35-.294-.7-.435-1.051M6,80.789c.191.357.388.707.585,1.057-.2.347-.394.7-.585,1.054-.147-.347-.294-.7-.435-1.054.141-.353.288-.7.435-1.057M93.308,109.2c.147.35.291.7.432,1.048a47.4,47.4,0,0,1-88.179,0c.141-.35.285-.7.435-1.048a49.968,49.968,0,0,0,43.653,26.089A49.279,49.279,0,0,0,93.308,109.2M4.479,106.143c.084.188.169.372.256.56l-.253.544c-.059-.181-.119-.369-.175-.55.056-.185.116-.366.172-.554m.256-6.552c-.084.181-.169.366-.253.547-.059-.181-.116-.363-.172-.547.056-.181.113-.366.172-.547.084.181.169.366.253.547m-.256-7.65c.084.188.169.372.256.557-.084.185-.169.366-.253.55-.059-.185-.119-.366-.175-.554.056-.185.113-.366.172-.554M4.735,85.4c-.084.181-.169.363-.253.547-.059-.185-.116-.366-.172-.547.056-.185.113-.366.172-.547.084.181.169.363.253.547m-.425-14.2c.056-.185.113-.366.172-.55.084.185.169.369.253.55l-.253.544c-.059-.181-.116-.363-.172-.544m.169,6.549c.084.188.169.369.256.554-.084.181-.169.369-.253.55-.059-.185-.119-.369-.175-.554.056-.185.116-.369.172-.55m90.343,35.506c.031.1.066.2.1.3.025.081.05.16.075.241a47.425,47.425,0,0,1-90.687,0c.056-.181.116-.363.175-.544a49.573,49.573,0,0,0,90.34,0M49.648,154.425A47.815,47.815,0,0,1,3.562,118.2a49.591,49.591,0,0,0,92.188-.025,47.828,47.828,0,0,1-46.1,36.25M95.763,125.2a47.8,47.8,0,0,1-46.114,36.319A47.813,47.813,0,0,1,3.54,125.214a50.035,50.035,0,0,0,46.108,31.375A50.032,50.032,0,0,0,95.763,125.2M0,127.995a49.652,49.652,0,1,0,99.3,0c0-1.192-.041-2.371-.125-3.55l0-.081c-.091-1.167-.21-2.317-.372-3.465l-.022-.156a.6.6,0,0,1-.013-.084c-.006-.031-.013-.072-.019-.1q-.249-1.679-.61-3.318c-.009-.038-.016-.075-.025-.113s-.013-.059-.019-.084c-.009-.044-.019-.088-.028-.128s-.016-.072-.025-.109-.019-.081-.028-.122c-.175-.776-.372-1.539-.585-2.3-.056-.2-.113-.394-.172-.591h0l-.056-.178c-.013-.047-.028-.094-.041-.134s-.028-.1-.041-.144a.7.7,0,0,1-.025-.075c0-.009-.006-.022-.009-.031s0-.013,0-.022c-.31-1-.644-1.989-1.016-2.965l-.106-.272c-.016-.041-.028-.078-.047-.122l-.022-.053c-.013-.034-.025-.066-.038-.1-.46-1.167-.96-2.321-1.5-3.437,0-.009-.006-.016-.009-.025-.016-.025-.028-.056-.041-.081-.466-.976-.985-1.961-1.579-3v0l-.319-.547s0,0,0,0c-.632-1.063-1.263-2.055-1.914-3l0,0-.407-.572a.293.293,0,0,1-.044-.059c-.769-1.073-1.514-2.039-2.252-2.924l0,0-.166-.191c-.147-.172-.294-.347-.441-.516-.857-.995-1.742-1.945-2.636-2.83l0,0-.266-.253c-.185-.181-.369-.36-.557-.532-.019-.019-.041-.041-.063-.059-.078-.072-.156-.15-.235-.225-.9-.844-1.867-1.676-2.877-2.483,1.132-.9,2.2-1.833,3.174-2.765l.819-.785-.006-.009c.985-.982,1.861-1.914,2.649-2.84.134-.153.269-.31.4-.466l.206-.244c.794-.96,1.551-1.936,2.246-2.921.028-.041.056-.078.088-.122,0,0,.006-.009.009-.016l.347-.491h0c.669-.973,1.31-1.973,1.917-2.993l.322-.544,0-.009c.541-.951,1.06-1.92,1.539-2.912.028-.056.053-.116.081-.175h0c.016-.038.034-.072.05-.109a.288.288,0,0,0,.016-.031.756.756,0,0,1,.034-.072.024.024,0,0,1,.006-.013c.013-.028.028-.059.041-.088l.075-.156h0c.447-.951.863-1.92,1.251-2.9.034-.088.069-.172.1-.256l0-.006c.016-.038.028-.075.044-.113,0-.013.009-.022.013-.034.019-.047.038-.094.053-.138l.041-.1c.378-.991.719-2.008,1.035-3.034.019-.069.041-.134.059-.2.025-.084.053-.169.078-.256a.206.206,0,0,0,.013-.047q.493-1.628.86-3.321c.009-.047.022-.094.028-.141a.743.743,0,0,0,.022-.1.822.822,0,0,0,.022-.094c.16-.741.3-1.486.428-2.239.059-.35.113-.7.166-1.051v-.016L98.8,57c.163-1.145.281-2.311.372-3.481l0-.081c.081-1.17.125-2.355.125-3.547A49.652,49.652,0,1,0,0,49.9Z" fill="#adc3b2"/>
</svg>
