<?xml version="1.0" encoding="UTF-8"?>
<!-- Generator: Adobe Illustrator 25.2.3, SVG Export Plug-In . SVG Version: 6.00 Build 0) -->
<svg xmlns="http://www.w3.org/2000/svg" xmlns:xlink="http://www.w3.org/1999/xlink" version="1.1" id="Layer_1" x="0px" y="0px" viewBox="0 0 305.896 56.88" style="enable-background:new 0 0 305.896 56.88;" xml:space="preserve"> <style type="text/css"> .st0{fill:#0F151F;} .st1{fill:#ADC3B2;} </style> <g> <g> <path class="st0" d="M301.001,40.618c0,1.291,0.921,2.229,2.448,2.229c1.527,0,2.447-0.938,2.447-1.994 c0-2.64-3.904-1.702-3.904-3.52c0-0.598,0.583-1.173,1.457-1.173c0.757,0,1.34,0.575,1.34,1.408h0.933 c0-1.232-1.003-2.23-2.273-2.23c-1.399,0-2.39,0.998-2.39,1.995c0,2.64,3.905,1.701,3.905,3.52c0,0.657-0.525,1.173-1.515,1.173 c-0.991,0-1.516-0.516-1.516-1.408H301.001z M294.217,42.789h0.933v-5.573l3.671,5.573h0.816v-7.392h-0.932v5.573l-3.672-5.573 h-0.816V42.789z M289.481,35.338c-1.807,0-3.439,1.643-3.439,3.755s1.632,3.754,3.439,3.754c1.806,0,3.438-1.642,3.438-3.754 S291.287,35.338,289.481,35.338 M289.481,36.16c1.282,0,2.506,1.232,2.506,2.933s-1.224,2.933-2.506,2.933 c-1.283,0-2.506-1.232-2.506-2.933S288.198,36.16,289.481,36.16 M283.835,42.789h0.932v-7.391h-0.932V42.789z M279.76,42.789 h0.932v-6.571h2.215v-0.821h-5.362v0.821h2.215V42.789z M271.313,40.207c0,1.526,1.107,2.64,2.681,2.64 c1.573,0,2.681-1.114,2.681-2.64v-4.81h-0.933v4.81c0,1.127-0.687,1.819-1.748,1.819s-1.748-0.692-1.748-1.819v-4.81h-0.933 V40.207z M266.272,42.789h4.429v-0.822h-3.496v-6.57h-0.933V42.789z M261.535,35.338c-1.806,0-3.438,1.643-3.438,3.755 s1.632,3.754,3.438,3.754c1.807,0,3.439-1.642,3.439-3.754S263.342,35.338,261.535,35.338 M261.535,36.16 c1.283,0,2.506,1.232,2.506,2.933s-1.223,2.933-2.506,2.933c-1.282,0-2.506-1.232-2.506-2.933S260.253,36.16,261.535,36.16 M252.451,40.618c0,1.291,0.921,2.229,2.448,2.229c1.527,0,2.447-0.938,2.447-1.994c0-2.64-3.904-1.702-3.904-3.52 c0-0.598,0.583-1.173,1.457-1.173c0.757,0,1.34,0.575,1.34,1.408h0.933c0-1.232-1.003-2.23-2.273-2.23 c-1.399,0-2.39,0.998-2.39,1.995c0,2.64,3.905,1.701,3.905,3.52c0,0.657-0.525,1.173-1.515,1.173 c-0.991,0-1.516-0.516-1.516-1.408H252.451z"/> <path class="st0" d="M266.966,28.358V25.66h1.806c0.688,0,1.282,0.598,1.282,1.349c0,0.751-0.594,1.349-1.282,1.349H266.966z M266.033,32.23h0.933v-3.05h1.398l1.749,3.05h1.049l-1.795-3.109c0.291-0.094,0.559-0.235,0.804-0.422 c0.408-0.317,0.816-0.833,0.816-1.69c0-1.173-0.991-2.17-2.215-2.17h-2.739V32.23z M261.296,24.78 c-1.806,0-3.438,1.642-3.438,3.754s1.632,3.755,3.438,3.755c1.807,0,3.439-1.643,3.439-3.755S263.103,24.78,261.296,24.78 M261.296,25.601c1.282,0,2.506,1.232,2.506,2.933s-1.224,2.933-2.506,2.933c-1.282,0-2.506-1.232-2.506-2.933 S260.014,25.601,261.296,25.601 M252.917,32.23h0.932v-3.285h2.914v-0.821h-2.914V25.66h3.555v-0.821h-4.487V32.23z"/> <path class="st0" d="M286.849,21.67h0.699v-3.696h-3.089v0.822h2.157c0,1.055-1.049,2.111-2.215,2.111 c-1.282,0-2.506-1.232-2.506-2.933s1.224-2.933,2.506-2.933c1.166,0,1.807,0.645,2.098,1.584h0.991 c-0.466-1.408-1.457-2.405-3.089-2.405c-1.806,0-3.438,1.642-3.438,3.754s1.632,3.755,3.438,3.755c0.7,0,1.247-0.235,1.632-0.47 c0.221-0.14,0.408-0.293,0.583-0.469L286.849,21.67z M274.222,21.67h0.933v-5.573l3.671,5.573h0.816v-7.391h-0.932v5.572 l-3.672-5.572h-0.816V21.67z M271.54,21.67h0.932v-7.391h-0.932V21.67z M264.359,21.67h0.933v-5.573l3.671,5.573h0.816v-7.391 h-0.932v5.572l-3.672-5.572h-0.816V21.67z M261.677,21.67h0.932v-7.391h-0.932V21.67z M252.917,21.67h0.932v-4.986l2.273,4.986 h0.583l2.273-4.986v4.986h0.932v-7.391h-0.757l-2.739,5.924l-2.739-5.924h-0.758V21.67z"/> </g> <path class="st1" d="M220.698,53.918c-7.066,0-13.119-4.941-14.749-11.635c2.364,5.924,8.179,10.056,14.749,10.056 c6.57,0,12.381-4.125,14.747-10.043C233.809,48.984,227.759,53.918,220.698,53.918 M220.698,56.188 c-7.121,0-13.113-4.954-14.743-11.615c2.356,5.893,8.125,10.037,14.743,10.037c6.621,0,12.392-4.148,14.747-10.045 C233.818,51.23,227.823,56.188,220.698,56.188 M220.698,2.961c7.065,0,13.117,4.939,14.75,11.634 c-2.364-5.923-8.178-10.054-14.75-10.054c-6.572,0-12.386,4.131-14.749,10.055C207.579,7.902,213.632,2.961,220.698,2.961 M220.698,0.692c7.124,0,13.118,4.957,14.747,11.621c-2.356-5.898-8.127-10.044-14.747-10.044c-6.617,0-12.385,4.142-14.743,10.036 C207.587,5.645,213.578,0.692,220.698,0.692 M220.698,6.81c-6.521,0-12.369,4.099-14.745,10.042 c1.644-6.717,7.745-11.619,14.745-11.619c6.998,0,13.096,4.898,14.743,11.609C233.066,10.904,227.219,6.81,220.698,6.81 M220.698,9.081c-6.575,0-12.335,3.966-14.734,10c1.661-6.731,7.799-11.579,14.734-11.579c6.942,0,13.084,4.852,14.739,11.588 C233.04,13.049,227.278,9.081,220.698,9.081 M235.142,20.668c-2.578-5.689-8.153-9.317-14.444-9.317 c-6.29,0-11.866,3.628-14.442,9.317c-0.019-0.058-0.038-0.116-0.056-0.174c1.987-6.416,7.8-10.721,14.498-10.721 c6.7,0,12.514,4.303,14.499,10.721C235.178,20.552,235.16,20.61,235.142,20.668 M234.657,21.966 c-2.784-5.166-8.068-8.344-13.959-8.344c-5.797,0-11.198,3.252-13.958,8.345c-0.047-0.112-0.093-0.224-0.139-0.338 c2.319-5.829,7.838-9.586,14.097-9.586c6.26,0,11.779,3.757,14.098,9.586C234.751,21.741,234.705,21.853,234.657,21.966 M234.057,23.218c-2.907-4.533-7.971-7.326-13.359-7.326c-5.382,0-10.446,2.793-13.357,7.326c-0.08-0.149-0.158-0.3-0.234-0.454 c2.556-5.138,7.872-8.45,13.591-8.45c5.81,0,11.002,3.233,13.593,8.451C234.215,22.918,234.137,23.069,234.057,23.218 M233.322,24.438c-2.993-3.938-7.675-6.275-12.624-6.275c-4.944,0-9.625,2.337-12.622,6.275c-0.118-0.177-0.233-0.357-0.344-0.536 c2.749-4.52,7.698-7.318,12.966-7.318c5.274,0,10.223,2.798,12.967,7.316C233.555,24.081,233.44,24.261,233.322,24.438 M232.434,25.641c-3.006-3.317-7.26-5.21-11.736-5.21c-4.473,0-8.726,1.894-11.734,5.21c-0.167-0.203-0.323-0.404-0.47-0.604 c2.858-3.875,7.402-6.182,12.204-6.182c4.807,0,9.351,2.307,12.206,6.18C232.755,25.239,232.598,25.441,232.434,25.641 M231.35,26.83c-2.926-2.663-6.696-4.125-10.652-4.125c-3.955,0-7.725,1.463-10.651,4.125c-0.216-0.215-0.425-0.435-0.628-0.66 c2.881-3.211,6.974-5.048,11.279-5.048c4.309,0,8.403,1.837,11.282,5.048C231.787,26.385,231.578,26.604,231.35,26.83 M230.012,28.008c-2.715-1.988-5.93-3.036-9.314-3.036c-3.379,0-6.594,1.048-9.312,3.036c-0.292-0.227-0.571-0.462-0.835-0.7 c2.794-2.525,6.383-3.912,10.147-3.912c3.766,0,7.355,1.387,10.148,3.912C230.585,27.544,230.306,27.779,230.012,28.008 M211.969,28.442c2.562-1.819,5.57-2.778,8.729-2.778c3.164,0,6.172,0.959,8.732,2.778c-2.56,1.815-5.568,2.773-8.732,2.773 C217.54,31.215,214.531,30.257,211.969,28.442 M230.846,29.576c-2.794,2.523-6.383,3.909-10.148,3.909 c-3.764,0-7.352-1.385-10.147-3.909c0.265-0.24,0.545-0.474,0.835-0.701c2.719,1.985,5.933,3.032,9.312,3.032 c3.384,0,6.599-1.047,9.314-3.032C230.304,29.102,230.582,29.337,230.846,29.576 M231.977,30.71 c-2.878,3.212-6.971,5.047-11.279,5.047c-4.303,0-8.396-1.837-11.277-5.047c0.208-0.232,0.416-0.451,0.624-0.657 c2.929,2.662,6.698,4.124,10.653,4.124c3.956,0,7.726-1.462,10.654-4.124C231.562,30.26,231.772,30.48,231.977,30.71 M232.903,31.848c-2.86,3.872-7.403,6.177-12.205,6.177c-4.801,0-9.345-2.305-12.203-6.177c0.16-0.216,0.316-0.419,0.472-0.608 c3.009,3.315,7.261,5.208,11.731,5.208c4.475,0,8.728-1.893,11.734-5.208C232.587,31.429,232.743,31.63,232.903,31.848 M233.666,32.983c-2.749,4.518-7.698,7.315-12.968,7.315c-5.265,0-10.215-2.798-12.966-7.315c0.114-0.187,0.227-0.365,0.343-0.539 c2.997,3.937,7.679,6.273,12.623,6.273c4.945,0,9.627-2.336,12.625-6.273C233.438,32.618,233.552,32.796,233.666,32.983 M208.075,30.171c0.138,0.18,0.281,0.359,0.431,0.538c-0.143,0.171-0.286,0.351-0.43,0.542c-0.118-0.177-0.233-0.359-0.344-0.541 C207.846,30.524,207.959,30.345,208.075,30.171 M208.075,26.705c-0.118-0.175-0.232-0.354-0.343-0.535 c0.111-0.181,0.225-0.36,0.343-0.536c0.135,0.178,0.278,0.357,0.427,0.536C208.354,26.347,208.211,26.527,208.075,26.705 M208.964,27.909c-0.164-0.2-0.322-0.402-0.47-0.604c0.147-0.202,0.304-0.405,0.47-0.606c0.188,0.206,0.381,0.409,0.579,0.608 C209.347,27.5,209.154,27.701,208.964,27.909 M209.418,28.44c0.204-0.227,0.413-0.446,0.627-0.655 c0.245,0.223,0.503,0.443,0.772,0.657c-0.267,0.213-0.526,0.433-0.771,0.656C209.834,28.889,209.624,28.669,209.418,28.44 M208.075,28.977c-0.117-0.177-0.231-0.356-0.342-0.537c0.115-0.189,0.228-0.367,0.342-0.538c0.137,0.181,0.281,0.36,0.429,0.538 C208.352,28.623,208.21,28.801,208.075,28.977 M208.965,28.971c0.189,0.21,0.382,0.411,0.578,0.604 c-0.193,0.191-0.385,0.393-0.576,0.604c-0.167-0.201-0.324-0.404-0.473-0.604C208.639,29.377,208.795,29.177,208.965,28.971 M207.341,31.392c0.097,0.152,0.198,0.303,0.302,0.454c-0.102,0.148-0.202,0.299-0.301,0.453c-0.081-0.15-0.159-0.301-0.235-0.455 C207.182,31.692,207.261,31.541,207.341,31.392 M207.342,29.123c0.098,0.152,0.199,0.302,0.301,0.452 c-0.102,0.147-0.203,0.297-0.302,0.453c-0.08-0.149-0.159-0.299-0.234-0.452C207.183,29.422,207.261,29.271,207.342,29.123 M207.108,25.035c0.075-0.152,0.153-0.304,0.233-0.452c0.099,0.152,0.2,0.304,0.303,0.452c-0.103,0.149-0.204,0.3-0.302,0.453 C207.261,25.338,207.183,25.187,207.108,25.035 M207.342,26.851c0.098,0.153,0.199,0.303,0.302,0.453 c-0.101,0.144-0.201,0.296-0.302,0.454c-0.081-0.15-0.159-0.3-0.234-0.453C207.183,27.153,207.261,27.001,207.342,26.851 M234.057,33.665c0.08,0.149,0.158,0.299,0.234,0.451c-2.59,5.217-7.783,8.449-13.593,8.449c-5.72,0-11.037-3.31-13.591-8.449 c0.076-0.152,0.154-0.302,0.234-0.451c2.913,4.533,7.977,7.325,13.357,7.325C226.082,40.99,231.147,38.197,234.057,33.665 M206.74,32.644c0.061,0.113,0.124,0.227,0.187,0.339c-0.063,0.11-0.126,0.223-0.187,0.336c-0.048-0.112-0.094-0.224-0.139-0.336 C206.646,32.868,206.692,32.756,206.74,32.644 M206.74,30.374c0.061,0.113,0.124,0.225,0.187,0.336 c-0.063,0.111-0.126,0.223-0.187,0.337c-0.047-0.111-0.094-0.223-0.139-0.337C206.646,30.598,206.692,30.486,206.74,30.374 M206.74,28.102c0.061,0.114,0.124,0.226,0.188,0.34c-0.064,0.11-0.127,0.222-0.188,0.336c-0.048-0.112-0.094-0.224-0.139-0.336 C206.646,28.328,206.692,28.215,206.74,28.102 M206.601,23.902c0.045-0.115,0.091-0.227,0.139-0.339 c0.061,0.113,0.124,0.227,0.187,0.339c-0.063,0.111-0.126,0.223-0.187,0.336C206.692,24.126,206.646,24.014,206.601,23.902 M206.74,25.832c0.061,0.114,0.124,0.226,0.187,0.338c-0.063,0.111-0.126,0.223-0.187,0.337c-0.047-0.111-0.094-0.225-0.139-0.337 C206.646,26.057,206.693,25.945,206.74,25.832 M234.658,34.915c0.047,0.112,0.093,0.223,0.138,0.335 c-2.32,5.83-7.838,9.589-14.098,9.589c-6.258,0-11.776-3.758-14.097-9.589c0.045-0.112,0.091-0.224,0.139-0.335 c2.759,5.091,8.16,8.342,13.958,8.342C226.59,43.257,231.874,40.079,234.658,34.915 M206.255,33.939 c0.027,0.06,0.054,0.119,0.082,0.179c-0.027,0.058-0.054,0.116-0.081,0.174c-0.019-0.058-0.038-0.118-0.056-0.176 C206.218,34.057,206.237,33.999,206.255,33.939 M206.337,31.844c-0.027,0.058-0.054,0.117-0.081,0.175 c-0.019-0.058-0.037-0.116-0.055-0.175c0.018-0.058,0.036-0.117,0.055-0.175C206.283,31.727,206.31,31.786,206.337,31.844 M206.255,29.398c0.027,0.06,0.054,0.119,0.082,0.178c-0.027,0.059-0.054,0.117-0.081,0.176c-0.019-0.059-0.038-0.117-0.056-0.177 C206.218,29.516,206.236,29.458,206.255,29.398 M206.337,27.305c-0.027,0.058-0.054,0.116-0.081,0.175 c-0.019-0.059-0.037-0.117-0.055-0.175c0.018-0.059,0.036-0.117,0.055-0.175C206.283,27.188,206.31,27.246,206.337,27.305 M206.201,22.764c0.018-0.059,0.036-0.117,0.055-0.176c0.027,0.059,0.054,0.118,0.081,0.176c-0.027,0.058-0.054,0.116-0.081,0.174 C206.237,22.88,206.219,22.822,206.201,22.764 M206.255,24.858c0.027,0.06,0.054,0.118,0.082,0.177 c-0.027,0.058-0.054,0.118-0.081,0.176c-0.019-0.059-0.038-0.118-0.056-0.177C206.218,24.975,206.237,24.916,206.255,24.858 M235.142,36.211c0.01,0.032,0.021,0.064,0.031,0.097c0.008,0.026,0.016,0.051,0.024,0.077 c-1.982,6.418-7.795,10.721-14.499,10.721c-6.702,0-12.516-4.303-14.498-10.721c0.018-0.058,0.037-0.116,0.056-0.174 c2.578,5.691,8.153,9.32,14.442,9.32C226.989,45.531,232.564,41.902,235.142,36.211 M220.698,49.377 c-6.939,0-13.079-4.85-14.736-11.583c2.394,6.038,8.155,10.004,14.736,10.004c6.585,0,12.348-3.97,14.741-10.012 C233.784,44.523,227.64,49.377,220.698,49.377 M235.443,40.034c-1.644,6.714-7.745,11.613-14.745,11.613 c-6.996,0-13.095-4.899-14.743-11.61c2.376,5.937,8.223,10.032,14.743,10.032C227.22,50.069,233.067,45.974,235.443,40.034 M204.823,40.926c0,8.797,7.121,15.954,15.875,15.954c8.755,0,15.877-7.157,15.877-15.954c0-0.381-0.013-0.758-0.04-1.135 l-0.001-0.026c-0.029-0.373-0.067-0.741-0.119-1.108l-0.007-0.05c-0.002-0.008-0.003-0.017-0.004-0.027 c-0.002-0.01-0.004-0.023-0.006-0.033c-0.053-0.358-0.118-0.712-0.195-1.061c-0.003-0.012-0.005-0.024-0.008-0.036 c-0.002-0.01-0.004-0.019-0.006-0.027c-0.003-0.014-0.006-0.028-0.009-0.041c-0.003-0.011-0.005-0.023-0.008-0.035 c-0.003-0.014-0.006-0.026-0.009-0.039c-0.056-0.248-0.119-0.492-0.187-0.734c-0.018-0.063-0.036-0.126-0.055-0.189h0.001 l-0.018-0.057c-0.004-0.015-0.009-0.03-0.013-0.043c-0.004-0.015-0.009-0.031-0.013-0.046c-0.003-0.008-0.006-0.016-0.008-0.024 c-0.001-0.003-0.002-0.007-0.003-0.01c-0.001-0.001-0.001-0.004-0.001-0.007c-0.099-0.321-0.206-0.636-0.325-0.948l-0.034-0.087 c-0.005-0.013-0.009-0.025-0.015-0.039c-0.002-0.005-0.005-0.012-0.007-0.017c-0.004-0.011-0.008-0.021-0.012-0.031 c-0.147-0.373-0.307-0.742-0.48-1.099c-0.001-0.003-0.002-0.005-0.003-0.008c-0.005-0.008-0.009-0.018-0.013-0.026 c-0.149-0.312-0.315-0.627-0.505-0.959v-0.001l-0.102-0.175c-0.001,0-0.001,0-0.001-0.001c-0.202-0.34-0.404-0.657-0.612-0.958 l0.001-0.001l-0.13-0.183c-0.005-0.005-0.01-0.012-0.014-0.019c-0.246-0.343-0.484-0.652-0.72-0.935l0.001-0.001l-0.053-0.061 c-0.047-0.055-0.094-0.111-0.141-0.165c-0.274-0.318-0.557-0.622-0.843-0.905l0.001-0.001l-0.085-0.081 c-0.059-0.058-0.118-0.115-0.178-0.17c-0.006-0.006-0.013-0.013-0.02-0.019c-0.025-0.023-0.05-0.048-0.075-0.072 c-0.289-0.27-0.597-0.536-0.92-0.794c0.362-0.288,0.702-0.586,1.015-0.884l0.262-0.251l-0.002-0.003 c0.315-0.314,0.595-0.612,0.847-0.908c0.043-0.049,0.086-0.099,0.128-0.149l0.066-0.078c0.254-0.307,0.496-0.619,0.718-0.934 c0.009-0.013,0.018-0.025,0.028-0.039c0-0.001,0.002-0.003,0.003-0.005l0.111-0.157h-0.001c0.214-0.311,0.419-0.631,0.613-0.957 l0.103-0.174l-0.001-0.003c0.173-0.304,0.339-0.614,0.492-0.931c0.009-0.018,0.017-0.037,0.026-0.056h0.001 c0.005-0.012,0.011-0.023,0.016-0.035c0.002-0.003,0.003-0.006,0.005-0.01c0.003-0.008,0.007-0.015,0.011-0.023 c0-0.001,0.001-0.003,0.002-0.004c0.004-0.009,0.009-0.019,0.013-0.028l0.024-0.05h-0.001c0.143-0.304,0.276-0.614,0.4-0.926 c0.011-0.028,0.022-0.055,0.032-0.082l0.001-0.002l0.014-0.036c0.001-0.004,0.003-0.007,0.004-0.011 c0.006-0.015,0.012-0.03,0.017-0.044l0.013-0.033c0.121-0.317,0.23-0.642,0.331-0.97c0.006-0.022,0.013-0.043,0.019-0.065 c0.008-0.027,0.017-0.054,0.025-0.082c0.002-0.004,0.003-0.01,0.004-0.015c0.105-0.347,0.196-0.701,0.275-1.062 c0.003-0.015,0.007-0.03,0.009-0.045c0.003-0.009,0.005-0.02,0.007-0.031c0.003-0.009,0.005-0.02,0.007-0.03 c0.051-0.237,0.097-0.475,0.137-0.716c0.019-0.112,0.036-0.224,0.053-0.336c0-0.003,0-0.004,0-0.005l0.007-0.045 c0.052-0.366,0.09-0.739,0.119-1.113l0.001-0.026c0.026-0.374,0.04-0.753,0.04-1.134C236.575,7.157,229.453,0,220.698,0 c-8.754,0-15.875,7.157-15.875,15.954V40.926z"/> <g> <path class="st0" d="M182.281,32.217c-0.666,2.267-2.666,4.222-6.221,4.222c-4.044,0-7.332-3.377-7.332-7.999 c0-4.621,3.288-7.999,7.332-7.999c3.333,0,5.288,2,5.999,4.222l6.666-0.444c-1.289-5.333-6.044-9.999-12.665-9.999 c-7.599,0-13.776,6.221-13.776,14.22s6.177,14.22,13.776,14.22c6.888,0,11.598-4.666,12.887-9.998L182.281,32.217z M139.172,42.438h20.442v-6.221h-13.998v-4.888h12.442v-6.222h-12.442v-4.443h13.553v-6.222h-19.997V42.438z M122.189,42.438 h6.443V20.664h7.999v-6.222H114.19v6.222h7.999V42.438z M105.249,42.438h6.443V14.442h-6.443V42.438z M86.568,42.438h6.665 l9.554-27.996h-6.665l-6.221,19.331l-6.222-19.331h-6.665L86.568,42.438z M51,42.438h6.444V25.996l11.331,16.442h5.777V14.442 h-6.443v16.442L56.777,14.442H51V42.438z M25.893,42.438h20.441v-6.221H32.337v-4.888h12.442v-6.222H32.337v-4.443H45.89v-6.222 H25.893V42.438z M6.443,37.105V30.44h5.555c2,0,3.555,1.555,3.555,3.333c0,1.777-1.555,3.332-3.555,3.332H6.443z M6.443,25.552 v-5.777h4.889c1.777,0,3.11,1.333,3.11,2.888c0,1.556-1.333,2.889-3.11,2.889H6.443z M0,42.438h12.665 c5.332,0,9.109-3.777,9.109-8.221c0-2.488-1.111-4.088-2.221-5.155c-0.667-0.622-1.378-1.111-2.222-1.511 c0.577-0.311,1.155-0.755,1.644-1.244c0.844-0.844,1.688-2.177,1.688-4.088c0-4.222-3.555-7.777-8.665-7.777H0V42.438z"/> </g> </g> </svg>